<?xml version="1.0" standalone="no"?>
<!DOCTYPE svg PUBLIC "-//W3C//DTD SVG 20010904//EN"
 "http://www.w3.org/TR/2001/REC-SVG-20010904/DTD/svg10.dtd">
<svg version="1.0" xmlns="http://www.w3.org/2000/svg"
 width="1078.000000pt" height="1078.000000pt" viewBox="0 0 1078.000000 1078.000000"
 preserveAspectRatio="xMidYMid meet">
<metadata>
Created by potrace 1.11, written by Peter Selinger 2001-2013
</metadata>
<g transform="translate(0.000000,1078.000000) scale(0.100000,-0.100000)"
fill="#000000" stroke="none">
<path d="M5209 10650 c-55 -58 -100 -81 -124 -64 -7 5 -29 22 -48 37 -52 42
-93 40 -130 -6 -31 -39 -54 -45 -103 -27 -23 9 -31 7 -51 -11 -12 -13 -23 -28
-23 -35 0 -26 -31 -42 -94 -49 -71 -7 -93 -22 -77 -53 5 -10 17 -24 25 -32 9
-7 16 -19 16 -26 0 -16 -2 -16 -163 28 -88 24 -123 29 -186 27 -70 -4 -84 -8
-129 -39 -28 -19 -49 -36 -47 -38 2 -2 25 4 52 14 74 26 195 23 258 -6 28 -12
71 -30 97 -39 26 -9 48 -20 50 -26 2 -6 -38 -12 -97 -16 -137 -8 -155 -14
-155 -50 0 -24 -4 -29 -24 -29 -31 0 -50 -24 -42 -55 5 -18 1 -28 -14 -37 -11
-7 -20 -20 -20 -29 0 -35 -25 -41 -207 -43 -158 -3 -184 -5 -229 -25 -77 -33
-103 -66 -115 -142 -18 -117 -35 -139 -107 -139 -49 0 -70 -20 -44 -42 9 -9
52 -32 95 -51 124 -57 105 -76 -78 -76 -224 1 -379 -54 -468 -164 -77 -95 -86
-130 -23 -82 56 43 156 75 232 75 75 0 81 -14 19 -38 -62 -23 -193 -122 -234
-174 -43 -56 -83 -78 -144 -78 -46 0 -69 -13 -42 -24 23 -8 19 -20 -30 -77
-25 -29 -45 -58 -45 -65 0 -6 -20 -51 -45 -100 -25 -48 -45 -100 -45 -114 0
-34 -19 -90 -31 -90 -5 0 -9 15 -10 33 0 30 -1 31 -11 9 -8 -16 -8 -36 2 -76
17 -71 7 -139 -30 -218 -41 -86 -40 -109 8 -134 38 -21 43 -35 27 -84 -8 -25
-8 -25 14 -6 11 11 24 16 28 12 16 -16 24 -158 34 -586 10 -475 11 -503 28
-693 10 -114 16 -213 41 -639 6 -95 16 -213 22 -263 6 -49 11 -101 12 -115 l1
-25 -115 0 c-92 0 -122 -4 -153 -19 -48 -24 -94 -80 -108 -131 -14 -51 -13
-614 1 -715 23 -164 43 -248 97 -393 82 -223 135 -321 236 -432 81 -90 238
-164 348 -165 33 0 61 -5 67 -13 5 -6 24 -59 42 -117 17 -58 56 -172 86 -255
30 -82 54 -153 54 -157 0 -16 174 -389 221 -472 l51 -91 -16 -85 c-8 -47 -23
-136 -32 -199 -8 -62 -17 -118 -20 -125 -2 -6 -15 -85 -29 -176 -45 -299 -75
-484 -84 -530 -5 -25 -7 -48 -5 -51 6 -11 1056 -912 1279 -1098 55 -46 134
-114 175 -151 41 -37 123 -107 181 -156 59 -49 152 -128 207 -176 55 -49 104
-88 110 -88 9 0 422 284 617 425 50 35 162 115 250 176 267 186 412 287 595
416 96 67 239 166 318 220 l143 98 -6 100 c-3 55 -8 141 -10 191 -3 50 -9 142
-15 204 -5 62 -8 116 -6 119 2 3 0 44 -4 91 -5 47 -11 139 -14 205 -3 66 -10
172 -15 235 -12 143 -10 158 27 212 60 88 173 308 232 453 78 192 145 416 172
577 l21 127 46 7 c208 28 356 88 451 183 50 49 64 74 119 201 35 80 83 190
108 245 129 288 193 590 193 914 0 238 -21 295 -134 353 -63 33 -174 31 -245
-5 -30 -15 -57 -25 -59 -22 -3 2 0 46 7 97 6 51 11 185 12 298 2 393 26 809
51 890 6 19 37 89 69 155 71 147 111 277 111 365 1 55 -5 79 -39 155 -22 50
-48 115 -58 145 -18 57 -66 153 -92 182 -14 16 -13 18 8 26 14 6 78 6 149 2
144 -9 205 -28 296 -91 50 -35 55 -37 34 -13 -62 70 -146 116 -248 137 -34 7
-64 15 -67 19 -4 3 14 20 40 38 26 18 45 34 42 36 -2 2 -25 0 -51 -5 -48 -9
-64 -7 -123 11 -40 12 -41 21 -7 65 14 18 24 41 22 50 -4 24 -45 43 -90 43
-56 0 -46 15 20 29 133 28 153 34 145 42 -5 5 -52 18 -104 29 -110 23 -159 44
-159 65 0 37 78 27 228 -31 154 -60 238 -138 267 -250 l15 -59 -6 70 c-10 135
-53 241 -126 316 -99 101 -263 201 -352 214 -22 4 -71 2 -108 -3 -38 -5 -68
-7 -68 -4 0 2 27 30 60 62 39 38 70 80 90 121 31 65 42 118 13 64 -37 -72
-131 -145 -236 -184 -109 -40 -130 -23 -34 26 34 18 76 44 92 58 l30 26 -40
-17 c-22 -9 -49 -19 -59 -22 -19 -5 -19 -4 2 25 l22 31 -58 -24 c-59 -24 -112
-31 -112 -14 0 15 141 117 195 141 66 30 185 38 207 15 22 -21 34 -21 17 1
-43 51 -156 67 -250 34 -61 -21 -170 -74 -211 -102 -48 -34 -50 -20 -9 56 23
41 41 77 41 80 0 3 -24 -12 -52 -33 -29 -22 -64 -45 -76 -52 -21 -10 -23 -9
-20 6 3 17 152 154 190 175 14 7 22 2 43 -28 29 -43 32 -38 10 15 -15 34 -15
38 2 50 67 52 214 87 298 71 88 -16 149 -63 219 -169 47 -71 48 -40 2 55 -76
159 -222 239 -392 216 -41 -6 -110 -23 -154 -37 l-80 -26 -37 32 c-36 32 -126
80 -150 80 -28 0 -10 34 55 98 126 128 226 153 311 78 27 -23 21 -8 -18 42
-64 86 -112 68 -325 -118 l-86 -75 -107 -1 c-99 -1 -195 -17 -352 -60 -23 -7
-23 -5 -17 28 6 32 -8 135 -20 147 -3 3 -14 -5 -25 -19 -16 -21 -20 -23 -29
-10 -10 15 -14 35 -11 58 3 18 -5 15 -62 -24 -43 -30 -53 -33 -55 -19 -14 70
156 218 277 241 32 6 33 8 16 20 -10 8 -40 14 -65 14 -58 0 -119 -37 -181
-109 -24 -28 -48 -51 -53 -51 -4 0 -6 13 -4 29 4 28 3 29 -29 24 l-33 -6 4 79
c9 183 131 412 221 414 23 0 27 3 15 10 -45 29 -123 -8 -179 -86 -36 -51 -55
-93 -116 -257 -11 -32 -26 -52 -42 -60 -22 -10 -28 -8 -52 20 -14 17 -36 36
-48 42 -12 6 -30 24 -39 40 -10 17 -44 45 -76 63 -96 54 -199 129 -195 142 5
17 75 54 133 71 95 29 160 35 214 21 27 -7 50 -9 50 -5 0 12 -84 113 -128 154
-57 54 -150 96 -224 102 -117 9 -208 -28 -340 -138 -39 -32 -76 -59 -83 -59
-7 0 -19 9 -27 21 -13 21 -15 21 -68 5 -62 -18 -106 -21 -115 -5 -4 5 17 46
46 90 28 44 49 82 45 86 -3 4 -36 -6 -73 -21 l-67 -27 -38 40 c-20 23 -41 41
-45 41 -4 0 -22 -14 -40 -31 -31 -31 -33 -32 -58 -15 -14 9 -37 36 -51 59 -38
61 -65 87 -88 87 -13 0 -44 -25 -77 -60z m2159 -1192 c-3 -7 -33 -34 -69 -61
-35 -26 -85 -65 -111 -87 -25 -22 -51 -40 -57 -40 -6 0 -17 13 -25 29 -13 23
-23 29 -61 34 -96 10 -84 40 32 80 142 49 300 74 291 45z m223 -18 c35 -11 72
-27 82 -34 18 -14 18 -15 -2 -25 -11 -6 -63 -45 -116 -86 -52 -41 -98 -75
-100 -75 -12 0 -3 48 15 78 11 17 17 32 14 32 -11 0 -90 -59 -153 -114 -36
-31 -70 -56 -76 -56 -47 0 -11 58 118 186 67 66 121 112 133 112 12 1 50 -7
85 -18z m-990 -971 c12 -12 30 -41 40 -65 11 -24 22 -44 24 -44 17 0 38 17 51
41 8 16 19 29 23 29 5 0 46 -74 91 -164 44 -90 96 -181 114 -201 29 -35 37
-38 92 -42 87 -6 102 -11 130 -42 21 -24 37 -31 87 -36 142 -17 247 -88 282
-195 15 -45 17 -73 10 -189 -3 -75 -13 -172 -20 -216 -8 -44 -18 -123 -24
-175 -6 -52 -19 -139 -27 -193 -17 -103 -15 -211 5 -279 6 -20 36 -72 66 -116
30 -44 67 -102 83 -129 36 -61 105 -238 126 -323 45 -186 65 -599 40 -835 -16
-153 -18 -168 -79 -435 -19 -85 -39 -177 -45 -205 -40 -183 -56 -237 -96 -323
-53 -113 -68 -132 -189 -222 -49 -37 -104 -83 -122 -101 -34 -36 -183 -267
-216 -334 -10 -22 -50 -92 -88 -156 -80 -135 -105 -154 -165 -125 -19 9 -57
36 -83 61 -45 42 -49 44 -63 27 -24 -27 -53 -100 -73 -182 -20 -84 -68 -196
-112 -262 -16 -24 -42 -68 -57 -99 -51 -102 -231 -278 -308 -300 -47 -13 -111
8 -292 95 -264 128 -356 139 -562 71 -59 -19 -112 -35 -118 -35 -6 0 -38 -13
-71 -30 -152 -75 -205 -92 -266 -88 -50 4 -69 11 -129 52 -83 57 -120 98 -113
125 3 12 -11 47 -37 89 -31 53 -44 87 -51 139 -10 75 -54 222 -73 249 -7 9
-18 14 -24 10 -7 -4 -39 -48 -72 -99 -65 -100 -81 -114 -151 -132 -42 -11 -51
-11 -77 5 -57 35 -132 198 -132 288 -1 26 -8 65 -16 87 -9 22 -19 85 -24 140
-5 65 -15 116 -28 145 -11 25 -24 74 -27 110 -11 100 -33 196 -54 238 -25 47
-80 99 -156 147 -33 20 -85 61 -115 91 -31 30 -80 67 -110 82 -76 40 -88 60
-109 194 -11 63 -26 128 -34 144 -8 16 -31 83 -51 149 -20 66 -50 161 -66 210
-16 50 -31 104 -34 120 -23 119 -20 547 4 750 5 44 14 128 20 187 10 104 47
255 77 311 8 16 64 80 124 143 148 155 196 232 201 324 2 36 -8 69 -54 172
-76 167 -101 276 -102 437 l-1 124 55 49 c69 62 213 133 306 152 87 17 184 55
283 110 57 31 106 72 205 172 139 139 199 186 278 216 73 27 135 24 199 -12
109 -60 196 -100 299 -137 103 -36 107 -37 260 -37 l155 -1 65 32 c36 18 108
55 160 82 128 68 243 112 307 118 67 7 83 -5 83 -63 0 -54 12 -55 57 -8 32 35
34 35 58 20 13 -9 34 -30 47 -46 36 -49 68 -39 208 68 124 95 163 109 201 71z
m-3921 -2719 c41 -12 99 -15 127 -6 18 6 23 -3 46 -76 15 -46 33 -126 42 -178
9 -52 27 -156 40 -230 13 -74 31 -182 40 -240 9 -58 23 -115 31 -127 8 -12 14
-45 14 -73 0 -119 50 -362 118 -577 48 -148 46 -152 -55 -133 -179 34 -279
124 -389 354 -55 114 -99 238 -135 379 -26 101 -39 296 -39 587 0 215 1 227
23 265 34 60 71 74 137 55z m5771 -36 c17 -9 37 -31 45 -50 35 -84 25 -441
-17 -602 -11 -42 -29 -120 -39 -172 -10 -52 -30 -122 -45 -155 -29 -64 -136
-310 -190 -437 -39 -91 -64 -124 -125 -167 -68 -46 -237 -102 -330 -108 l-78
-6 9 49 c5 27 21 92 35 144 14 52 40 154 59 227 19 72 45 157 58 190 13 32 41
110 62 173 21 63 44 127 51 142 24 47 91 329 99 413 8 89 36 188 66 240 20 34
134 106 197 125 45 14 111 11 143 -6z m-4686 -3041 c397 -601 970 -988 1545
-1044 181 -18 343 -3 554 50 114 29 316 111 430 175 253 142 535 372 748 611
51 58 96 101 100 97 4 -4 7 -38 8 -77 1 -38 6 -117 11 -175 5 -58 9 -132 10
-165 0 -33 5 -105 10 -160 5 -55 11 -154 14 -220 4 -66 10 -162 13 -214 l8
-94 -51 -37 c-27 -21 -98 -71 -156 -112 -58 -40 -161 -111 -228 -158 -68 -47
-166 -116 -219 -154 -54 -39 -160 -113 -237 -166 -77 -53 -174 -121 -216 -151
-42 -30 -154 -108 -249 -174 -94 -66 -231 -162 -303 -214 -73 -51 -137 -95
-144 -98 -6 -2 -105 76 -219 174 -114 98 -239 205 -279 238 -40 33 -130 110
-201 171 -167 145 -310 268 -499 429 -345 294 -634 542 -649 555 -8 8 14 199
35 290 9 43 18 96 74 450 35 219 37 230 45 230 4 0 24 -26 45 -57z"/>
<path d="M4114 6779 c-165 -16 -352 -164 -448 -356 -29 -59 -36 -133 -12 -133
8 0 18 5 21 10 15 25 140 99 260 153 126 58 133 60 230 65 150 6 335 -29 748
-144 114 -31 147 -31 178 2 42 45 21 153 -43 210 -56 51 -110 68 -483 150
-195 42 -332 55 -451 43z"/>
<path d="M6505 6655 c-66 -7 -174 -18 -240 -24 -159 -14 -208 -27 -258 -64
-92 -70 -111 -178 -38 -221 34 -20 34 -20 165 2 72 12 160 24 196 28 36 3 94
9 130 14 91 13 417 12 465 -1 64 -18 304 -167 371 -231 33 -32 64 -55 67 -51
4 3 7 25 7 49 0 187 -220 444 -417 487 -100 22 -307 28 -448 12z"/>
<path d="M4928 5034 c-42 -63 -56 -126 -39 -177 20 -59 91 -107 158 -107 l38
1 -64 32 c-109 56 -122 107 -62 255 11 28 17 52 13 52 -4 0 -24 -25 -44 -56z"/>
<path d="M6100 5078 c0 -2 11 -37 24 -76 35 -102 41 -151 23 -194 -18 -44 -47
-64 -124 -88 l-58 -18 50 -1 c91 -1 167 51 181 125 8 43 -11 126 -44 187 -22
41 -52 79 -52 65z"/>
<path d="M5120 4841 c-21 -6 -15 -9 29 -15 71 -9 78 -14 178 -106 95 -89 159
-120 246 -120 62 0 100 17 182 84 73 60 147 95 200 97 l40 1 -37 10 c-68 18
-149 -8 -302 -97 -87 -50 -153 -34 -291 71 -105 79 -165 98 -245 75z"/>
<path d="M5160 4626 c-25 -8 -121 -42 -215 -76 -121 -44 -198 -66 -270 -76
-76 -11 -121 -25 -190 -57 -192 -89 -223 -122 -251 -263 -16 -83 -13 -145 11
-224 7 -25 13 -75 13 -111 0 -52 11 -97 46 -205 26 -77 51 -146 56 -154 11
-17 13 -4 16 115 1 39 6 147 11 240 8 139 14 178 31 210 36 72 106 116 216
139 88 19 170 44 259 79 91 35 84 35 572 25 297 -6 412 -16 472 -39 16 -6 57
-17 93 -24 101 -20 241 -63 280 -87 19 -11 60 -29 91 -38 70 -22 148 -72 177
-115 33 -48 42 -89 42 -196 0 -107 16 -203 36 -220 10 -8 15 -8 19 2 43 118
47 139 52 287 8 199 -6 258 -80 338 -55 60 -102 91 -198 130 -35 15 -75 34
-89 44 -14 9 -72 42 -130 72 -58 30 -140 78 -184 106 -43 29 -96 57 -119 63
-42 11 -47 10 -246 -43 -73 -19 -91 -20 -147 -11 -34 6 -103 29 -152 52 -102
47 -158 56 -222 37z"/>
<path d="M4936 3310 c-33 -10 -66 -38 -66 -56 0 -15 16 -20 95 -29 46 -5 67
-13 88 -33 15 -15 38 -37 51 -49 13 -13 32 -23 44 -23 20 0 41 -16 148 -114
50 -45 56 -48 93 -42 36 5 44 2 87 -34 25 -23 54 -40 62 -38 9 2 26 19 39 38
46 71 54 80 95 90 22 7 53 20 67 31 14 10 48 23 74 28 37 7 59 19 90 49 23 22
54 44 69 47 15 4 30 16 33 26 4 10 18 22 33 25 15 3 32 7 37 8 6 2 -12 17 -40
34 l-50 31 -245 -4 c-135 -3 -317 0 -405 5 -289 17 -370 19 -399 10z"/>
</g>
</svg>
